{"title":"Adam 2009 480p HDRip XviD titler","uid":10010811,"size":1174670514,"categoryP":"video","categoryS":"movies","magnet":"?xt=urn:btih:779c33905ae18d15c261857ddf4eccc2c52eb555&amp;dn=Adam+2009+480p+HDRip+XviD+titler&amp;tr=udp%3A%2F%2Ftracker.openbittorrent.com%3A80&amp;tr=udp%3A%2F%2Fopen.demonii.com%3A1337&amp;tr=udp%3A%2F%2Ftracker.coppersurfer.tk%3A6969&amp;tr=udp%3A%2F%2Fexodus.desync.com%3A6969","seeders":1,"leechers":0,"uploader":"movieZ.freak","files":4,"time":1398097328,"description":"SOURCE: Adam 2009 720p HDTV DD5 1 x264 - CtrlHD\n\n\n\n &lt;a href=&quot;\nhttp://www.imdb.com/title/tt1185836/&quot; rel=&quot;nofollow&quot; target=&quot;_NEW&quot;&gt;\nhttp://www.imdb.com/title/tt1185836/&lt;/a&gt;\n\n\n &lt;a href=&quot;\nhttp://www.rottentomatoes.com/m/1208105-adam/&quot; rel=&quot;nofollow&quot; target=&quot;_NEW&quot;&gt;\nhttp://www.rottentomatoes.com/m/1208105-adam/&lt;/a&gt;\n\n\n &lt;a href=&quot;\nhttp://en.wikipedia.org/wiki/Adam_%282009_film%29&quot; rel=&quot;nofollow&quot; target=&quot;_NEW&quot;&gt;\nhttp://en.wikipedia.org/wiki/Adam_%282009_film%29&lt;/a&gt;\n\n\n\n\n- SAMPLE: Yes\n\n\n- SUBTITLE: English\n\n\n- LANGUAGE / AUDIO: English\n\n\n\n\nSCREENSHOTS:\n-------------------    &lt;a href=&quot;\nhttp://someimage.com/JVy2&quot; rel=&quot;nofollow&quot; target=&quot;_NEW&quot;&gt;\nhttp://someimage.com/JVy2&lt;/a&gt;\n\n\n\n\nDIRECTOR: Max Mayer\n\n\n\nCAST: Hugh Dancy, Peter Gallagher, Amy Irving, Frankie Faison, Mark Linn-Baker,...\n\n\n\nPLOT:\n-----------\nA romantic character study examining the obstacles to intimacy and the compromises we make in the name of love, Adam stars Hugh Dancy as a man living with Asperger's syndrome who does his best to reach out to his pretty new upstairs neighbor. Due to his condition, Adam isn't the best when it comes to communicating. Though he frequently escapes by submersing himself in the world of space exploration, Adam senses an opportunity for a real human connection after Beth (Rose Byrne) moves into the apartment just upstairs. As Adam attempts to gain control of his off-kilter, sometimes embarrassing social skills, he discovers that with a little patience and understanding, developing a meaningful relationship might not be as hard as he previously thought. Peter Gallagher, Amy Irving, Frankie Faison, and Mark Linn-Baker co-star.\n\n\n************************************\n\n- Duration: 1h 38mn\n\n- Bit rate: 1435 Kbps\n\n- Res: 854 x 480\n\n- AR: 16:9\n\n- FPS: 23.976 fps\n\n- Audio: AC3, 2 channels, 128Kbps\n\n************************************\n\n\nGeneral\n------------\nFormat : AVI\nFormat/Info : Audio Video Interleave\nFile size : 1.08 GiB\nDuration : 1h 38mn\nOverall bit rate : 1572 Kbps\nWriting library : VirtualDub build 35491\n\n\nVideo\n-----------\nFormat : MPEG-4 Visual\nFormat profile : Advanced Simple@L5\nFormat settings, BVOP : 2\nFormat settings, QPel : No\nFormat settings, GMC : No warppoints\nFormat settings, Matrix : Default (H.263)\nCodec ID : XVID\nCodec ID/Hint : XviD\nDuration : 1h 38mn\nBit rate : 1435 Kbps\nWidth : 854 pixels\nHeight : 480 pixels\nDisplay aspect ratio : 16:9\nFrame rate : 23.976 fps\nColor space : YUV\nChroma subsampling : 4:2:0\nBit depth : 8 bits\nScan type : Progressive\nCompression mode : Lossy\nBits/(Pixel*Frame) : 0.146\nStream size : 1 009 MiB (91%)\nWriting library : XviD 65\n\n\nAudio\n------------\nFormat : AC-3\nFormat/Info : Audio Coding 3\nMode extension : CM (complete main)\nFormat settings, Endianness : Big\nCodec ID : 2000\nDuration : 1h 38mn\nBit rate mode : Constant\nBit rate : 128 Kbps\nChannel(s) : 2 channels\nChannel positions : Front: L R\nSampling rate : 48.0 KHz\nBit depth : 16 bits\nCompression mode : Lossy\nStream size : 90.0 MiB (8%)\nAlignment : Aligned on interleaves\nInterleave, duration : 42 ms (1.00 video frame)\nInterleave, preload duration : 512 ms","torrent":{"xt":"urn:btih:779c33905ae18d15c261857ddf4eccc2c52eb555","amp;dn":"Adam+2009+480p+HDRip+XviD+titler","amp;tr":["udp%3A%2F%2Ftracker.openbittorrent.com%3A80","udp%3A%2F%2Fopen.demonii.com%3A1337","udp%3A%2F%2Ftracker.coppersurfer.tk%3A6969","udp%3A%2F%2Fexodus.desync.com%3A6969"],"infoHash":"779c33905ae18d15c261857ddf4eccc2c52eb555","infoHashBuffer":{"type":"Buffer","data":[119,156,51,144,90,225,141,21,194,97,133,125,223,78,204,194,197,46,181,85]},"announce":[],"urlList":[]}}